<svg xmlns="http://www.w3.org/2000/svg" width="294" height="142.031" viewBox="0 0 294 142.031"><defs><style>.cls-1 { fill: #646261; fill-rule: evenodd; }</style></defs><path id="truly_logo" data-name="truly logo" class="cls-1" d="M291 51.004c-2.21-.148-3.63 1.153-5.39 3.278-9.45 11.42-26.4 28.424-33.3 27.96-4.95-.33 5.59-18.66 5.94-23.813.19-2.785-1.24-4.208-3.45-4.357a6.987 6.987 0 0 0-5.52 2.72c-9.21 10.8-23.04 25.913-31.59 25.34-4.72-.317-6.86-5.8-6.73-13.923 18.27-18.21 35.79-43.634 36.65-56.527.36-5.39-2.24-8.343-7.39-8.688-17.29-1.16-34.43 36.706-36.17 62.655-.05.66-.07 1.3-.1 1.93-9.78 9.343-18.92 15.726-23.97 15.387-8.21-.55 9.96-23.594-.58-24.3-1.65-.11-3.78.66-6.74 3.514-6.32 6.123-20.3 21.38-27.56 20.893-4.88-.328.33-14.086.7-19.6.48-7.138-4.56-8.344-7.77-8.474-11.63-.473-27.87 12.5-34.54 21.352.53-2.63 1.14-5.556 1.61-8.36.86-5.112.26-7.75-2.46-7.932-2.53-.17-3.3 2.078-4.01 5.51-2.17 10.618-4.78 17.787-5.05 22.19-.21 3.58 1.8 5.265 3.62 5.387 2.42.162 4.34-1.475 6.48-5.164 9.36-16.128 25.31-29.48 32.37-29.005 1.17.08 2.11.36 1.97 2.378-.28 4.15-4.21 12.937-3.65 19.422.39 4.587 2.95 7.9 9.35 8.332 9.14.613 20.52-9.656 28.26-17.3-2.26 7.555-2.67 16.782 5.56 17.335 6.67.447 16.48-5.56 26.67-14.574 1.12 9.1 5.47 13.533 11.93 13.967 10.52.706 23.5-12.95 30.83-21.648-4.28 11.663-4.66 21.904 4.55 22.522 6.51.437 17.76-6.942 31.84-23.637-8.64 33.66-33.1 72.524-67.3 70.23-25.62-1.718-35.59-18.55-38.77-22.932-.85-1.165-1.73-1.737-2.57-1.365-.79.354-1.12 1.317-.57 2.83 5.32 14.63 21.86 26.055 41.54 27.375 53.68 3.6 77.59-75.817 78.32-86.783.23-3.346-1.71-4.038-3.01-4.126zM239.96 7.43c7.79.524-10.6 32.435-28.23 52.158 3.9-26.447 20.81-52.65 28.23-52.157zm-59.5.014c4.75.253 6.67-1.375 6.79-3.286.17-2.477-4.95-3.232-11.64-3.68-22.33-1.5-46.93.89-70.5 4.182a2.95 2.95 0 0 0-3.05-3.223c-2.15-.144-4.58 1.77-5.86 4.513-10.89 1.625-21.45 3.365-31.36 4.915C57.8 7.95 49.02 6.17 38.98 5.498 24.69 4.54.58 6.29 0 14.84c-.87 12.907 39.75 5.258 64.04 1.57l1.22-.2c11.69 6.242 16.93 18.657 5.82 43.815-6.69 15.14-16.12 36.883-18.48 43.024-3.06 7.694-.54 11.465 2.2 11.648 1.79.12 3.18-2.4 4.38-5.035 9.7-22.686 31.37-79.38 42.68-98.672 31.72-3.743 57.81-4.647 78.6-3.542zM16.39 15.462c-2.79-.188-4.55-.413-4.49-1.346.26-3.848 18.93-4.476 26.01-4a104.328 104.328 0 0 1 16.8 2.29c-15.32 2.252-28.59 3.712-38.32 3.06zm66.87 20.053c.27-8.765-3.63-15.565-10.68-20.484q10.815-1.69 20.89-3c-2.77 6.225-6.45 14.658-10.21 23.49z"/></svg>
